#N canvas 2461 235 864 282 10;
#X msg 1507 194 4;
#X obj 16 -176 loadbang;
#X msg 16 -151 \; pd dsp 1;
#X msg 15 -115 \; pd dsp 0;
#X obj 529 -151 r ton-right;
#X obj 267 -153 r ton-left;
#X obj 82 -167 cnv 15 329 178 empty empty empty 20 12 0 14 -257985
-66577 0;
#X obj 168 -47 bng 30 250 50 0 empty Q-do C 12 10 1 13 -262144 -1 -1
;
#X obj 202 -47 bng 30 250 50 0 empty S-re D 12 10 1 13 -262144 -1 -1
;
#X obj 239 -47 bng 30 250 50 0 empty D-mi E 12 10 1 13 -262144 -1 -1
;
#X obj 274 -47 bng 30 250 50 0 empty F-fa F 12 10 1 13 -262144 -1 -1
;
#X obj 309 -47 bng 30 250 50 0 empty G-sol G 12 10 1 13 -262144 -1
-1;
#X obj 344 -47 bng 30 250 50 0 empty H-la A 12 10 1 13 -262144 -1 -1
;
#X obj 379 -47 bng 30 250 50 0 empty J-si V 12 10 1 13 -262144 -1 -1
;
#X obj 185 -79 bng 30 250 50 0 empty Z-reb Q 12 10 1 13 -1 -262144
-262144;
#X obj 222 -79 bng 30 250 50 0 empty E-mib w 12 10 1 13 -1 -262144
-262144;
#X obj 291 -79 bng 30 250 50 0 empty T-solb R 12 10 1 13 -1 -262144
-262144;
#X obj 328 -79 bng 30 250 50 0 empty Y-lab T 12 10 1 13 -1 -262144
-262144;
#X obj 364 -79 bng 30 250 50 0 empty U-sib S 12 10 1 13 -1 -262144
-262144;
#X obj 315 -134 hradio 15 1 0 6 empty octave empty -9 10 0 12 -262144
-1 -1 3;
#X text 336 -170 octave;
#X text 183 -14 C____D_____E_____F_____G_____A____B;
#X text 317 -152 0;
#X text 333 -153 2;
#X text 347 -153 4;
#X text 362 -153 6;
#X text 377 -153 8;
#X text 395 -151 ^;
#X obj 419 -167 cnv 15 329 178 empty empty empty 20 12 0 14 -257985
-66577 0;
#X obj 422 -47 bng 30 250 50 0 empty do M 12 10 1 13 -262144 -1 -1
;
#X obj 456 -47 bng 30 250 50 0 empty re K 12 10 1 13 -262144 -1 -1
;
#X obj 491 -47 bng 30 250 50 0 empty mi I 12 10 1 13 -262144 -1 -1
;
#X obj 526 -47 bng 30 250 50 0 empty fa J 12 10 1 13 -262144 -1 -1
;
#X obj 561 -47 bng 30 250 50 0 empty sol H 12 10 1 13 -262144 -1 -1
;
#X obj 596 -47 bng 30 250 50 0 empty la ö 12 10 1 13 -262144 -1 -1
;
#X obj 631 -47 bng 30 250 50 0 empty si N 12 10 1 13 -262144 -1 -1
;
#X obj 437 -79 bng 30 250 50 0 empty reb ü 12 10 1 13 -1 -262144 -262144
;
#X obj 474 -79 bng 30 250 50 0 empty mib O 12 10 1 13 -1 -262144 -262144
;
#X obj 543 -79 bng 30 250 50 0 empty solb U 12 10 1 13 -1 -262144 -262144
;
#X obj 580 -79 bng 30 250 50 0 empty lab Z 12 10 1 13 -1 -262144 -262144
;
#X obj 616 -79 bng 30 250 50 0 empty sib L 13 10 1 12 -1 -262144 -262144
;
#X obj 426 -132 hradio 15 1 0 5 empty octave2 empty -9 10 0 12 -262144
-1 -1 2;
#X text 444 -170 octave;
#X text 434 -14 C____D_____E_____F_____G_____A____B;
#X text 428 -150 1;
#X text 443 -151 3;
#X text 458 -151 5;
#X text 473 -151 7;
#X text 490 -151 9;
#X text 179 -99 C#/Dm__D#/Em_____F#/Gm__G#/Am__A#/Bm;
#X text 430 -98 C#/Dm__D#/Em_____F#/Gm__G#/Am__A#/Bm;
#X obj 606 -137 hsl 128 15 0 1 0 0 empty vol-right vol -2 -8 0 10 -262144
-1 -1 0 1;
#X obj 103 -142 vsl 15 128 0 1 0 0 empty vol-left vol 0 -9 0 10 -262144
-1 -1 12700 1;
#X msg 252 -136 kurz;
#X msg 529 -135 kurz;
#X text 251 -158 y / x;
#X text 87 -11 Up / Down;
#X text 527 -157 \, / .;
#X text 651 -157 Left / Right;
#N canvas 0 52 1440 847 left 0;
#X msg -9 166 0;
#X msg 19 166 1;
#X msg 47 166 2;
#X msg 103 166 4;
#X msg 131 166 5;
#X obj 298 350 +;
#X msg 473 287 96;
#X msg 404 286 48;
#X msg 341 288 0;
#X msg 243 166 9;
#X msg 270 166 10;
#X msg 298 166 11;
#X msg 215 166 8;
#X msg 187 166 7;
#X msg 75 166 3;
#X obj 377 386 outlet note;
#X obj -194 275 s Q-do;
#X obj -102 275 s D-mi;
#X obj -82 294 s F-fa;
#X obj -7 275 s G-sol;
#X obj 46 274 s H-la;
#X obj 104 276 s J-si;
#X obj 118 298 s K-do;
#X obj -132 294 s E-mib;
#X obj -38 294 s T-solb;
#X obj 18 296 s Y-lab;
#X obj 69 296 s U-sib;
#X obj -149 274 s S-re;
#X obj -181 295 s Z-reb;
#X floatatom 394 367 5 0 0 0 - - -, f 5;
#X obj 358 71 key;
#X obj 358 147 sel 48;
#X obj 447 146 sel 52;
#X obj 545 146 sel 56;
#X msg 358 171 0;
#X msg 452 171 4;
#X msg 549 172 8;
#X obj 577 283 s octave;
#X msg 474 240 1;
#X msg 504 240 2;
#X obj 298 377 mtof;
#X obj 313 481 t b a;
#X obj 299 626 *~;
#X obj 313 598 line~;
#X msg 313 542 1 \, 0 500;
#X obj 298 505 osc~;
#X obj 403 146 sel 50;
#X msg 403 170 2;
#X obj 495 144 sel 54;
#X msg 500 169 6;
#X obj 589 145 sel 94;
#X msg 593 171 10;
#X obj 358 240 sel 0 2 4 6 8 10;
#X msg 373 287 24;
#X msg 507 287 120;
#X msg 541 240 3;
#X msg 577 238 4;
#X msg 614 238 5;
#X msg 439 287 72;
#X obj -691 512 +;
#X obj -691 539 mtof;
#X msg 341 319 \$1;
#X obj -691 333 keyname;
#X floatatom -691 358 5 0 0 0 - - -, f 5;
#X obj -691 472 select 1;
#X obj 37 67 key;
#X obj -691 564 osc~;
#X obj -629 534 t b a;
#X obj -629 591 line~;
#X msg -629 565 1 \, 0 500;
#X obj -645 616 *~;
#X obj -24 841 dac~;
#X msg -658 565 1;
#X symbolatom -652 360 10 0 0 0 - - -, f 10;
#X obj -607 406 bng 15 250 50 0 empty empty empty 17 7 0 10 -262144
-1 -1;
#X obj -652 406 bng 15 250 50 0 empty empty empty 17 7 0 10 -262144
-1 -1;
#X obj -691 450 spigot;
#X msg -652 425 1;
#X msg -607 425 0;
#X obj -629 509 pipe 10;
#X obj 298 770 *~;
#X obj 81 675 line~;
#X msg 81 653 \$1 20;
#X obj 84 633 hsl 128 15 0 1 0 0 empty empty empty -2 -8 0 10 -262144
-1 -1 12700 1;
#X obj 298 800 dac~;
#X floatatom 65 67 5 0 0 0 - - -, f 5;
#X obj -566 513 +;
#X obj -566 540 mtof;
#X obj -566 334 keyname;
#X floatatom -566 359 5 0 0 0 - - -, f 5;
#X obj -566 473 select 1;
#X obj -566 565 osc~;
#X obj -504 535 t b a;
#X obj -504 592 line~;
#X msg -504 566 1 \, 0 500;
#X obj -520 617 *~;
#X msg -533 566 1;
#X symbolatom -527 361 10 0 0 0 - - -, f 10;
#X obj -482 407 bng 15 250 50 0 empty empty empty 17 7 0 10 -262144
-1 -1;
#X obj -527 407 bng 15 250 50 0 empty empty empty 17 7 0 10 -262144
-1 -1;
#X obj -566 451 spigot;
#X msg -527 426 1;
#X msg -482 426 0;
#X obj -504 510 pipe 10;
#X obj -442 513 +;
#X obj -442 540 mtof;
#X obj -442 334 keyname;
#X floatatom -442 359 5 0 0 0 - - -, f 5;
#X obj -442 473 select 1;
#X obj -442 565 osc~;
#X obj -380 535 t b a;
#X obj -380 592 line~;
#X msg -380 566 1 \, 0 500;
#X obj -396 617 *~;
#X msg -409 566 1;
#X symbolatom -403 361 10 0 0 0 - - -, f 10;
#X obj -358 407 bng 15 250 50 0 empty empty empty 17 7 0 10 -262144
-1 -1;
#X obj -403 407 bng 15 250 50 0 empty empty empty 17 7 0 10 -262144
-1 -1;
#X obj -442 451 spigot;
#X msg -403 426 1;
#X msg -358 426 0;
#X obj -380 510 pipe 10;
#X obj -317 513 +;
#X obj -317 540 mtof;
#X obj -317 334 keyname;
#X floatatom -317 359 5 0 0 0 - - -, f 5;
#X obj -317 473 select 1;
#X obj -317 565 osc~;
#X obj -255 535 t b a;
#X obj -255 592 line~;
#X msg -255 566 1 \, 0 500;
#X msg -284 566 1;
#X symbolatom -278 361 10 0 0 0 - - -, f 10;
#X obj -233 407 bng 15 250 50 0 empty empty empty 17 7 0 10 -262144
-1 -1;
#X obj -278 407 bng 15 250 50 0 empty empty empty 17 7 0 10 -262144
-1 -1;
#X obj -317 451 spigot;
#X msg -278 426 1;
#X msg -233 426 0;
#X obj -255 510 pipe 10;
#X obj -195 513 +;
#X obj -195 540 mtof;
#X obj -195 332 keyname;
#X floatatom -195 359 5 0 0 0 - - -, f 5;
#X obj -195 473 select 1;
#X obj -195 565 osc~;
#X obj -133 535 t b a;
#X obj -133 592 line~;
#X msg -133 566 1 \, 0 500;
#X msg -162 566 1;
#X symbolatom -156 361 10 0 0 0 - - -, f 10;
#X obj -111 407 bng 15 250 50 0 empty empty empty 17 7 0 10 -262144
-1 -1;
#X obj -156 407 bng 15 250 50 0 empty empty empty 17 7 0 10 -262144
-1 -1;
#X obj -195 451 spigot;
#X msg -156 426 1;
#X msg -111 426 0;
#X obj -133 510 pipe 10;
#X obj -71 515 +;
#X obj -71 542 mtof;
#X floatatom -71 361 5 0 0 0 - - -, f 5;
#X obj -71 475 select 1;
#X obj -71 567 osc~;
#X obj -9 537 t b a;
#X obj -9 594 line~;
#X msg -9 568 1 \, 0 500;
#X msg -38 568 1;
#X symbolatom -32 363 10 0 0 0 - - -, f 10;
#X obj 13 409 bng 15 250 50 0 empty empty empty 17 7 0 10 -262144 -1
-1;
#X obj -32 409 bng 15 250 50 0 empty empty empty 17 7 0 10 -262144
-1 -1;
#X obj -71 453 spigot;
#X msg -32 428 1;
#X msg 13 428 0;
#X obj -9 512 pipe 10;
#X obj -1438 508 +;
#X obj -1438 535 mtof;
#X obj -1438 328 keyname;
#X floatatom -1438 353 5 0 0 0 - - -, f 5;
#X obj -1438 467 select 1;
#X obj -1438 560 osc~;
#X obj -1376 530 t b a;
#X obj -1376 587 line~;
#X msg -1376 561 1 \, 0 500;
#X obj -1392 612 *~;
#X msg -1405 561 1;
#X symbolatom -1399 355 10 0 0 0 - - -, f 10;
#X obj -1354 401 bng 15 250 50 0 empty empty empty 17 7 0 10 -262144
-1 -1;
#X obj -1399 401 bng 15 250 50 0 empty empty empty 17 7 0 10 -262144
-1 -1;
#X obj -1438 445 spigot;
#X msg -1399 420 1;
#X msg -1354 420 0;
#X obj -1376 505 pipe 10;
#X obj -1313 509 +;
#X obj -1313 536 mtof;
#X obj -1313 329 keyname;
#X floatatom -1313 354 5 0 0 0 - - -, f 5;
#X obj -1313 468 select 1;
#X obj -1313 561 osc~;
#X obj -1251 531 t b a;
#X obj -1251 588 line~;
#X msg -1251 562 1 \, 0 500;
#X obj -1267 613 *~;
#X msg -1280 562 1;
#X symbolatom -1274 356 10 0 0 0 - - -, f 10;
#X obj -1229 402 bng 15 250 50 0 empty empty empty 17 7 0 10 -262144
-1 -1;
#X obj -1274 402 bng 15 250 50 0 empty empty empty 17 7 0 10 -262144
-1 -1;
#X obj -1313 446 spigot;
#X msg -1274 421 1;
#X msg -1229 421 0;
#X obj -1251 506 pipe 10;
#X obj -1189 509 +;
#X obj -1189 536 mtof;
#X obj -1189 329 keyname;
#X floatatom -1189 354 5 0 0 0 - - -, f 5;
#X obj -1189 468 select 1;
#X obj -1189 561 osc~;
#X obj -1127 531 t b a;
#X obj -1127 588 line~;
#X msg -1127 562 1 \, 0 500;
#X obj -1143 613 *~;
#X msg -1156 562 1;
#X symbolatom -1150 356 10 0 0 0 - - -, f 10;
#X obj -1105 403 bng 15 250 50 0 empty empty empty 17 7 0 10 -262144
-1 -1;
#X obj -1150 402 bng 15 250 50 0 empty empty empty 17 7 0 10 -262144
-1 -1;
#X obj -1189 446 spigot;
#X msg -1150 421 1;
#X msg -1105 422 0;
#X obj -1127 506 pipe 10;
#X obj -1064 509 +;
#X obj -1064 536 mtof;
#X obj -1064 330 keyname;
#X floatatom -1064 355 5 0 0 0 - - -, f 5;
#X obj -1064 469 select 1;
#X obj -1064 561 osc~;
#X obj -1002 531 t b a;
#X obj -1002 588 line~;
#X msg -1002 562 1 \, 0 500;
#X obj -1018 613 *~;
#X msg -1031 562 1;
#X symbolatom -1025 357 10 0 0 0 - - -, f 10;
#X obj -980 403 bng 15 250 50 0 empty empty empty 17 7 0 10 -262144
-1 -1;
#X obj -1025 403 bng 15 250 50 0 empty empty empty 17 7 0 10 -262144
-1 -1;
#X obj -1064 447 spigot;
#X msg -1025 422 1;
#X msg -980 422 0;
#X obj -1002 506 pipe 10;
#X obj -942 509 +;
#X obj -942 536 mtof;
#X obj -942 330 keyname;
#X floatatom -942 355 5 0 0 0 - - -, f 5;
#X obj -942 469 select 1;
#X obj -942 561 osc~;
#X obj -880 531 t b a;
#X obj -880 588 line~;
#X msg -880 562 1 \, 0 500;
#X obj -896 613 *~;
#X msg -909 562 1;
#X symbolatom -903 357 10 0 0 0 - - -, f 10;
#X obj -858 403 bng 15 250 50 0 empty empty empty 17 7 0 10 -262144
-1 -1;
#X obj -903 403 bng 15 250 50 0 empty empty empty 17 7 0 10 -262144
-1 -1;
#X obj -942 447 spigot;
#X msg -903 422 1;
#X msg -858 422 0;
#X obj -880 506 pipe 10;
#X obj -818 511 +;
#X obj -818 538 mtof;
#X obj -818 332 keyname;
#X floatatom -818 357 5 0 0 0 - - -, f 5;
#X obj -818 471 select 1;
#X obj -818 563 osc~;
#X obj -756 533 t b a;
#X obj -756 590 line~;
#X msg -756 564 1 \, 0 500;
#X obj -772 615 *~;
#X msg -785 564 1;
#X symbolatom -779 359 10 0 0 0 - - -, f 10;
#X obj -734 405 bng 15 250 50 0 empty empty empty 17 7 0 10 -262144
-1 -1;
#X obj -779 405 bng 15 250 50 0 empty empty empty 17 7 0 10 -262144
-1 -1;
#X obj -818 449 spigot;
#X msg -779 424 1;
#X msg -734 424 0;
#X obj -756 508 pipe 10;
#X obj 246 375 s octav;
#X obj -56 494 r octav;
#X obj -180 492 r octav;
#X obj -302 492 r octav;
#X obj -427 492 r octav;
#X obj -551 491 r octav;
#X obj -676 492 r octav;
#X obj -803 489 r octav;
#X obj -928 489 r octav;
#X obj -1052 488 r octav;
#X obj -1174 487 r octav;
#X obj -1299 487 r octav;
#X obj -1423 486 r octav;
#X obj -32 387 select g;
#X obj -156 385 select s;
#X obj -278 385 select f;
#X obj -403 385 select t;
#X obj -527 385 select e;
#X obj -652 384 select r;
#X obj -779 383 select d;
#X obj -903 381 select c;
#X obj -1025 381 select w;
#X obj -1274 380 select q;
#X obj -1399 379 select a;
#X obj 119 510 f;
#X obj 150 509 + 1;
#X floatatom 81 559 5 0 0 0 - - -, f 5;
#X obj 81 534 f;
#X obj 112 533 - 1;
#X floatatom 119 558 5 0 0 0 - - -, f 5;
#X msg 178 462 0;
#X obj 145 535 max 0;
#X floatatom 81 610 5 0 0 0 - - -, f 5;
#X obj -25 808 *~ 0.9;
#X obj -71 335 keyname;
#X msg 159 166 6;
#X obj -25 782 *~;
#X text 28 771 spigot;
#X msg -10 755 1;
#X msg 18 754 0;
#X obj 299 728 *~;
#X text 352 717 spigot;
#X msg 314 701 1;
#X msg 342 700 0;
#X obj 468 95 s key;
#X obj -10 706 r key;
#X obj 314 652 r key;
#X obj 183 511 min 10;
#X obj 81 585 / 10;
#X obj 210 461 loadbang;
#X obj 366 676 loadbang;
#X msg 199 488 9;
#X text 104 740 ton y lang | x kurz;
#X obj 314 675 sel 120;
#X obj -10 729 sel 121;
#X obj -271 617 *~;
#X obj -149 617 *~;
#X obj -25 619 *~;
#X obj -24 687 *~;
#X obj 37 99 sel 99 113 100 119 101 102 114 103 116 97 115 118;
#X obj -1150 380 select v;
#X symbolatom 73 448 10 0 0 0 - - -, f 10;
#X obj 71 421 keyname;
#X obj 110 477 sel Up;
#X obj 53 478 sel Down;
#X text 57 399 lautstärke Down - | Up +;
#X floatatom 123 610 5 0 0 0 - - vol-left, f 5;
#X msg 125 780 set lang;
#X msg 138 802 set kurz;
#X obj 110 856 s ton-left;
#X connect 0 0 5 0;
#X connect 1 0 5 0;
#X connect 2 0 5 0;
#X connect 3 0 5 0;
#X connect 4 0 5 0;
#X connect 5 0 15 0;
#X connect 5 0 29 0;
#X connect 5 0 40 0;
#X connect 5 0 280 0;
#X connect 6 0 61 0;
#X connect 7 0 61 0;
#X connect 8 0 61 0;
#X connect 9 0 5 0;
#X connect 10 0 5 0;
#X connect 11 0 5 0;
#X connect 12 0 5 0;
#X connect 13 0 5 0;
#X connect 14 0 5 0;
#X connect 30 0 31 0;
#X connect 30 0 46 0;
#X connect 30 0 32 0;
#X connect 30 0 48 0;
#X connect 30 0 33 0;
#X connect 30 0 50 0;
#X connect 30 0 324 0;
#X connect 31 0 34 0;
#X connect 32 0 35 0;
#X connect 33 0 36 0;
#X connect 34 0 37 0;
#X connect 34 0 52 0;
#X connect 35 0 52 0;
#X connect 35 0 39 0;
#X connect 36 0 52 0;
#X connect 36 0 56 0;
#X connect 38 0 37 0;
#X connect 39 0 37 0;
#X connect 40 0 45 0;
#X connect 40 0 41 0;
#X connect 41 0 44 0;
#X connect 41 1 45 0;
#X connect 42 0 320 0;
#X connect 43 0 42 1;
#X connect 44 0 43 0;
#X connect 45 0 42 0;
#X connect 46 0 47 0;
#X connect 47 0 52 0;
#X connect 47 0 38 0;
#X connect 48 0 49 0;
#X connect 49 0 52 0;
#X connect 49 0 55 0;
#X connect 50 0 51 0;
#X connect 51 0 52 0;
#X connect 51 0 57 0;
#X connect 52 0 8 0;
#X connect 52 1 53 0;
#X connect 52 2 7 0;
#X connect 52 3 58 0;
#X connect 52 4 6 0;
#X connect 52 5 54 0;
#X connect 53 0 61 0;
#X connect 54 0 61 0;
#X connect 55 0 37 0;
#X connect 56 0 37 0;
#X connect 57 0 37 0;
#X connect 58 0 61 0;
#X connect 59 0 60 0;
#X connect 60 0 72 0;
#X connect 60 0 66 0;
#X connect 61 0 5 1;
#X connect 62 0 63 0;
#X connect 62 1 73 0;
#X connect 63 0 76 0;
#X connect 64 0 59 0;
#X connect 64 1 79 0;
#X connect 65 0 85 0;
#X connect 65 0 339 0;
#X connect 66 0 70 0;
#X connect 67 0 69 0;
#X connect 68 0 70 1;
#X connect 69 0 68 0;
#X connect 70 0 338 0;
#X connect 72 0 68 0;
#X connect 73 0 298 0;
#X connect 74 0 78 0;
#X connect 75 0 77 0;
#X connect 76 0 64 0;
#X connect 77 0 76 1;
#X connect 78 0 76 1;
#X connect 79 0 67 0;
#X connect 80 0 84 0;
#X connect 80 0 84 1;
#X connect 81 0 80 1;
#X connect 81 0 338 1;
#X connect 82 0 81 0;
#X connect 83 0 82 0;
#X connect 86 0 87 0;
#X connect 87 0 96 0;
#X connect 87 0 91 0;
#X connect 88 0 89 0;
#X connect 88 1 97 0;
#X connect 89 0 100 0;
#X connect 90 0 86 0;
#X connect 90 1 103 0;
#X connect 91 0 95 0;
#X connect 92 0 94 0;
#X connect 93 0 95 1;
#X connect 94 0 93 0;
#X connect 95 0 338 0;
#X connect 96 0 93 0;
#X connect 97 0 297 0;
#X connect 98 0 102 0;
#X connect 99 0 101 0;
#X connect 100 0 90 0;
#X connect 101 0 100 1;
#X connect 102 0 100 1;
#X connect 103 0 92 0;
#X connect 104 0 105 0;
#X connect 105 0 114 0;
#X connect 105 0 109 0;
#X connect 106 0 107 0;
#X connect 106 1 115 0;
#X connect 107 0 118 0;
#X connect 108 0 104 0;
#X connect 108 1 121 0;
#X connect 109 0 113 0;
#X connect 110 0 112 0;
#X connect 111 0 113 1;
#X connect 112 0 111 0;
#X connect 113 0 338 0;
#X connect 114 0 111 0;
#X connect 115 0 296 0;
#X connect 116 0 120 0;
#X connect 117 0 119 0;
#X connect 118 0 108 0;
#X connect 119 0 118 1;
#X connect 120 0 118 1;
#X connect 121 0 110 0;
#X connect 122 0 123 0;
#X connect 123 0 131 0;
#X connect 123 0 127 0;
#X connect 124 0 125 0;
#X connect 124 1 132 0;
#X connect 125 0 135 0;
#X connect 126 0 122 0;
#X connect 126 1 138 0;
#X connect 127 0 335 0;
#X connect 128 0 130 0;
#X connect 129 0 335 1;
#X connect 130 0 129 0;
#X connect 131 0 129 0;
#X connect 132 0 295 0;
#X connect 133 0 137 0;
#X connect 134 0 136 0;
#X connect 135 0 126 0;
#X connect 136 0 135 1;
#X connect 137 0 135 1;
#X connect 138 0 128 0;
#X connect 139 0 140 0;
#X connect 140 0 148 0;
#X connect 140 0 144 0;
#X connect 141 0 142 0;
#X connect 141 1 149 0;
#X connect 142 0 152 0;
#X connect 143 0 139 0;
#X connect 143 1 155 0;
#X connect 144 0 336 0;
#X connect 145 0 147 0;
#X connect 146 0 336 1;
#X connect 147 0 146 0;
#X connect 148 0 146 0;
#X connect 149 0 294 0;
#X connect 150 0 154 0;
#X connect 151 0 153 0;
#X connect 152 0 143 0;
#X connect 153 0 152 1;
#X connect 154 0 152 1;
#X connect 155 0 145 0;
#X connect 156 0 157 0;
#X connect 157 0 164 0;
#X connect 157 0 160 0;
#X connect 158 0 168 0;
#X connect 159 0 156 0;
#X connect 159 1 171 0;
#X connect 160 0 337 0;
#X connect 161 0 163 0;
#X connect 162 0 337 1;
#X connect 163 0 162 0;
#X connect 164 0 162 0;
#X connect 165 0 293 0;
#X connect 166 0 170 0;
#X connect 167 0 169 0;
#X connect 168 0 159 0;
#X connect 169 0 168 1;
#X connect 170 0 168 1;
#X connect 171 0 161 0;
#X connect 172 0 173 0;
#X connect 173 0 182 0;
#X connect 173 0 177 0;
#X connect 174 0 175 0;
#X connect 174 1 183 0;
#X connect 175 0 186 0;
#X connect 176 0 172 0;
#X connect 176 1 189 0;
#X connect 177 0 181 0;
#X connect 178 0 180 0;
#X connect 179 0 181 1;
#X connect 180 0 179 0;
#X connect 181 0 338 0;
#X connect 182 0 179 0;
#X connect 183 0 303 0;
#X connect 184 0 188 0;
#X connect 185 0 187 0;
#X connect 186 0 176 0;
#X connect 187 0 186 1;
#X connect 188 0 186 1;
#X connect 189 0 178 0;
#X connect 190 0 191 0;
#X connect 191 0 200 0;
#X connect 191 0 195 0;
#X connect 192 0 193 0;
#X connect 192 1 201 0;
#X connect 193 0 204 0;
#X connect 194 0 190 0;
#X connect 194 1 207 0;
#X connect 195 0 199 0;
#X connect 196 0 198 0;
#X connect 197 0 199 1;
#X connect 198 0 197 0;
#X connect 199 0 338 0;
#X connect 200 0 197 0;
#X connect 201 0 302 0;
#X connect 202 0 206 0;
#X connect 203 0 205 0;
#X connect 204 0 194 0;
#X connect 205 0 204 1;
#X connect 206 0 204 1;
#X connect 207 0 196 0;
#X connect 208 0 209 0;
#X connect 209 0 218 0;
#X connect 209 0 213 0;
#X connect 210 0 211 0;
#X connect 210 1 219 0;
#X connect 211 0 222 0;
#X connect 212 0 208 0;
#X connect 212 1 225 0;
#X connect 213 0 217 0;
#X connect 214 0 216 0;
#X connect 215 0 217 1;
#X connect 216 0 215 0;
#X connect 217 0 338 0;
#X connect 218 0 215 0;
#X connect 219 0 340 0;
#X connect 220 0 224 0;
#X connect 221 0 223 0;
#X connect 222 0 212 0;
#X connect 223 0 222 1;
#X connect 224 0 222 1;
#X connect 225 0 214 0;
#X connect 226 0 227 0;
#X connect 227 0 236 0;
#X connect 227 0 231 0;
#X connect 228 0 229 0;
#X connect 228 1 237 0;
#X connect 229 0 240 0;
#X connect 230 0 226 0;
#X connect 230 1 243 0;
#X connect 231 0 235 0;
#X connect 232 0 234 0;
#X connect 233 0 235 1;
#X connect 234 0 233 0;
#X connect 235 0 338 0;
#X connect 236 0 233 0;
#X connect 237 0 301 0;
#X connect 238 0 242 0;
#X connect 239 0 241 0;
#X connect 240 0 230 0;
#X connect 241 0 240 1;
#X connect 242 0 240 1;
#X connect 243 0 232 0;
#X connect 244 0 245 0;
#X connect 245 0 254 0;
#X connect 245 0 249 0;
#X connect 246 0 247 0;
#X connect 246 1 255 0;
#X connect 247 0 258 0;
#X connect 248 0 244 0;
#X connect 248 1 261 0;
#X connect 249 0 253 0;
#X connect 250 0 252 0;
#X connect 251 0 253 1;
#X connect 252 0 251 0;
#X connect 253 0 338 0;
#X connect 254 0 251 0;
#X connect 255 0 300 0;
#X connect 256 0 260 0;
#X connect 257 0 259 0;
#X connect 258 0 248 0;
#X connect 259 0 258 1;
#X connect 260 0 258 1;
#X connect 261 0 250 0;
#X connect 262 0 263 0;
#X connect 263 0 272 0;
#X connect 263 0 267 0;
#X connect 264 0 265 0;
#X connect 264 1 273 0;
#X connect 265 0 276 0;
#X connect 266 0 262 0;
#X connect 266 1 279 0;
#X connect 267 0 271 0;
#X connect 268 0 270 0;
#X connect 269 0 271 1;
#X connect 270 0 269 0;
#X connect 271 0 338 0;
#X connect 272 0 269 0;
#X connect 273 0 299 0;
#X connect 274 0 278 0;
#X connect 275 0 277 0;
#X connect 276 0 266 0;
#X connect 277 0 276 1;
#X connect 278 0 276 1;
#X connect 279 0 268 0;
#X connect 281 0 156 1;
#X connect 282 0 139 1;
#X connect 283 0 122 1;
#X connect 284 0 104 1;
#X connect 285 0 86 1;
#X connect 286 0 59 1;
#X connect 287 0 262 1;
#X connect 288 0 244 1;
#X connect 289 0 226 1;
#X connect 290 0 208 1;
#X connect 291 0 190 1;
#X connect 292 0 172 1;
#X connect 293 0 167 0;
#X connect 293 1 166 0;
#X connect 294 0 151 0;
#X connect 294 1 150 0;
#X connect 295 0 134 0;
#X connect 295 1 133 0;
#X connect 296 0 117 0;
#X connect 296 1 116 0;
#X connect 297 0 99 0;
#X connect 297 1 98 0;
#X connect 298 0 75 0;
#X connect 298 1 74 0;
#X connect 299 0 275 0;
#X connect 299 1 274 0;
#X connect 300 0 257 0;
#X connect 300 1 256 0;
#X connect 301 0 239 0;
#X connect 301 1 238 0;
#X connect 302 0 203 0;
#X connect 302 1 202 0;
#X connect 303 0 185 0;
#X connect 303 1 184 0;
#X connect 304 0 305 0;
#X connect 304 0 307 1;
#X connect 304 0 309 0;
#X connect 305 0 327 0;
#X connect 306 0 328 0;
#X connect 307 0 306 0;
#X connect 307 0 308 0;
#X connect 307 0 304 1;
#X connect 308 0 311 0;
#X connect 309 0 328 0;
#X connect 310 0 304 0;
#X connect 311 0 307 1;
#X connect 312 0 83 0;
#X connect 313 0 71 0;
#X connect 313 0 71 1;
#X connect 314 0 158 0;
#X connect 314 1 165 0;
#X connect 315 0 5 0;
#X connect 316 0 313 0;
#X connect 318 0 316 1;
#X connect 318 0 347 0;
#X connect 319 0 316 1;
#X connect 320 0 80 0;
#X connect 322 0 320 1;
#X connect 322 0 348 0;
#X connect 323 0 320 1;
#X connect 325 0 334 0;
#X connect 326 0 333 0;
#X connect 327 0 304 1;
#X connect 328 0 312 0;
#X connect 328 0 346 0;
#X connect 329 0 331 0;
#X connect 330 0 322 0;
#X connect 331 0 304 0;
#X connect 331 0 307 0;
#X connect 333 0 319 0;
#X connect 333 0 322 0;
#X connect 334 0 318 0;
#X connect 334 0 323 0;
#X connect 335 0 338 0;
#X connect 336 0 338 0;
#X connect 337 0 338 0;
#X connect 338 0 316 0;
#X connect 339 0 0 0;
#X connect 339 0 16 0;
#X connect 339 1 1 0;
#X connect 339 1 28 0;
#X connect 339 2 2 0;
#X connect 339 2 27 0;
#X connect 339 3 14 0;
#X connect 339 3 23 0;
#X connect 339 4 3 0;
#X connect 339 4 17 0;
#X connect 339 5 4 0;
#X connect 339 5 18 0;
#X connect 339 6 315 0;
#X connect 339 6 24 0;
#X connect 339 7 13 0;
#X connect 339 7 19 0;
#X connect 339 8 12 0;
#X connect 339 8 25 0;
#X connect 339 9 9 0;
#X connect 339 9 20 0;
#X connect 339 10 10 0;
#X connect 339 10 26 0;
#X connect 339 11 11 0;
#X connect 339 11 21 0;
#X connect 339 12 22 0;
#X connect 340 0 221 0;
#X connect 340 1 220 0;
#X connect 341 0 343 0;
#X connect 341 0 344 0;
#X connect 342 1 341 0;
#X connect 343 0 304 0;
#X connect 344 0 307 0;
#X connect 347 0 349 0;
#X connect 348 0 349 0;
#X restore 350 19 pd left;
#N canvas 0 52 1440 847 right 0;
#X msg 151 138 0;
#X msg 179 138 1;
#X msg 207 138 2;
#X msg 263 138 4;
#X msg 291 138 5;
#X msg 319 138 6;
#X obj 458 312 +;
#X obj 140 43 key;
#X msg 403 138 9;
#X msg 430 138 10;
#X msg 458 138 11;
#X msg 375 138 8;
#X msg 347 138 7;
#X msg 235 138 3;
#X obj 458 393 outlet note;
#X floatatom 475 374 5 0 0 0 - - -, f 5;
#X obj 522 43 key;
#X msg 662 211 1;
#X msg 692 211 2;
#X obj 189 593 mtof;
#X obj 189 620 t b a;
#X obj 189 737 line~;
#X msg 189 681 1 \, 0 500;
#X obj 174 644 osc~;
#X msg 729 211 3;
#X obj 73 258 s reb;
#X obj 122 259 s mib;
#X obj 194 260 s solb;
#X obj 248 260 s lab;
#X obj 303 262 s sib;
#X obj 57 288 s do;
#X obj 99 288 s re;
#X obj 142 289 s mi;
#X obj 184 290 s fa;
#X obj 227 290 s sol;
#X obj 272 291 s la;
#X msg 522 143 1;
#X obj 522 119 sel 49;
#X msg 567 142 3;
#X obj 567 118 sel 51;
#X msg 616 143 5;
#X obj 611 118 sel 53;
#X msg 664 141 7;
#X obj 659 116 sel 55;
#X msg 713 144 9;
#X obj 709 118 sel 57;
#X obj 522 212 sel 1 3 5 7 9;
#X msg 505 260 12;
#X msg 537 259 36;
#X msg 568 258 60;
#X msg 603 259 84;
#X msg 637 259 108;
#X obj 308 291 s si;
#X msg 625 213 0;
#X obj 729 245 s octave2;
#X obj 173 779 *~;
#X obj 1307 504 +;
#X obj 1307 531 mtof;
#X obj 1307 325 keyname;
#X floatatom 1307 350 5 0 0 0 - - -, f 5;
#X obj 1307 464 select 1;
#X obj 1307 556 osc~;
#X obj 1369 526 t b a;
#X obj 1369 583 line~;
#X msg 1369 557 1 \, 0 500;
#X obj 1353 608 *~;
#X obj 605 1003 dac~;
#X msg 1340 557 1;
#X symbolatom 1346 352 10 0 0 0 - - -, f 10;
#X obj 1391 398 bng 15 250 50 0 empty empty empty 17 7 0 10 -262144
-1 -1;
#X obj 1346 398 bng 15 250 50 0 empty empty empty 17 7 0 10 -262144
-1 -1;
#X obj 1307 442 spigot;
#X msg 1346 417 1;
#X msg 1391 417 0;
#X obj 1369 501 pipe 10;
#X obj 172 923 *~;
#X obj 605 849 *~;
#X obj 325 813 line~;
#X msg 325 791 \$1 20;
#X obj 328 771 hsl 128 15 0 1 0 0 empty empty empty -2 -8 0 10 -262144
-1 -1 0 1;
#X obj 172 953 dac~;
#X obj 1432 505 +;
#X obj 1432 532 mtof;
#X obj 1432 326 keyname;
#X floatatom 1432 351 5 0 0 0 - - -, f 5;
#X obj 1432 465 select 1;
#X obj 1432 557 osc~;
#X obj 1494 527 t b a;
#X obj 1494 584 line~;
#X msg 1494 558 1 \, 0 500;
#X obj 1478 609 *~;
#X msg 1465 558 1;
#X symbolatom 1471 353 10 0 0 0 - - -, f 10;
#X obj 1516 399 bng 15 250 50 0 empty empty empty 17 7 0 10 -262144
-1 -1;
#X obj 1471 399 bng 15 250 50 0 empty empty empty 17 7 0 10 -262144
-1 -1;
#X obj 1432 443 spigot;
#X msg 1471 418 1;
#X msg 1516 418 0;
#X obj 1494 502 pipe 10;
#X obj 1556 505 +;
#X obj 1556 532 mtof;
#X obj 1556 326 keyname;
#X floatatom 1556 351 5 0 0 0 - - -, f 5;
#X obj 1556 465 select 1;
#X obj 1556 557 osc~;
#X obj 1618 527 t b a;
#X obj 1618 584 line~;
#X msg 1618 558 1 \, 0 500;
#X obj 1602 609 *~;
#X msg 1589 558 1;
#X symbolatom 1595 353 10 0 0 0 - - -, f 10;
#X obj 1640 399 bng 15 250 50 0 empty empty empty 17 7 0 10 -262144
-1 -1;
#X obj 1595 399 bng 15 250 50 0 empty empty empty 17 7 0 10 -262144
-1 -1;
#X obj 1556 443 spigot;
#X msg 1595 418 1;
#X msg 1640 418 0;
#X obj 1618 502 pipe 10;
#X obj 1681 505 +;
#X obj 1681 532 mtof;
#X obj 1681 326 keyname;
#X floatatom 1681 351 5 0 0 0 - - -, f 5;
#X obj 1681 465 select 1;
#X obj 1681 557 osc~;
#X obj 1743 527 t b a;
#X obj 1743 584 line~;
#X msg 1743 558 1 \, 0 500;
#X obj 1727 609 *~;
#X msg 1714 558 1;
#X symbolatom 1720 353 10 0 0 0 - - -, f 10;
#X obj 1765 399 bng 15 250 50 0 empty empty empty 17 7 0 10 -262144
-1 -1;
#X obj 1720 399 bng 15 250 50 0 empty empty empty 17 7 0 10 -262144
-1 -1;
#X obj 1681 443 spigot;
#X msg 1720 418 1;
#X msg 1765 418 0;
#X obj 1743 502 pipe 10;
#X obj 1803 505 +;
#X obj 1803 532 mtof;
#X obj 1803 465 select 1;
#X obj 1803 557 osc~;
#X obj 1865 527 t b a;
#X obj 1865 584 line~;
#X msg 1865 558 1 \, 0 500;
#X obj 1849 609 *~;
#X msg 1836 558 1;
#X obj 1887 399 bng 15 250 50 0 empty empty empty 17 7 0 10 -262144
-1 -1;
#X obj 1842 399 bng 15 250 50 0 empty empty empty 17 7 0 10 -262144
-1 -1;
#X obj 1803 443 spigot;
#X msg 1842 418 1;
#X msg 1887 418 0;
#X obj 1865 502 pipe 10;
#X obj 2055 507 +;
#X obj 2055 534 mtof;
#X floatatom 2055 353 5 0 0 0 - - -, f 5;
#X obj 2055 467 select 1;
#X obj 2055 559 osc~;
#X obj 2117 529 t b a;
#X obj 2117 586 line~;
#X msg 2117 560 1 \, 0 500;
#X obj 2101 611 *~;
#X msg 2088 560 1;
#X symbolatom 2094 355 10 0 0 0 - - -, f 10;
#X obj 2139 401 bng 15 250 50 0 empty empty empty 17 7 0 10 -262144
-1 -1;
#X obj 2094 401 bng 15 250 50 0 empty empty empty 17 7 0 10 -262144
-1 -1;
#X obj 2055 445 spigot;
#X msg 2094 420 1;
#X msg 2139 420 0;
#X obj 2117 504 pipe 10;
#X obj 560 500 +;
#X obj 560 527 mtof;
#X obj 560 320 keyname;
#X floatatom 560 345 5 0 0 0 - - -, f 5;
#X obj 560 459 select 1;
#X obj 560 552 osc~;
#X obj 622 522 t b a;
#X obj 622 579 line~;
#X msg 622 553 1 \, 0 500;
#X obj 606 604 *~;
#X msg 593 553 1;
#X symbolatom 599 347 10 0 0 0 - - -, f 10;
#X obj 644 393 bng 15 250 50 0 empty empty empty 17 7 0 10 -262144
-1 -1;
#X obj 599 393 bng 15 250 50 0 empty empty empty 17 7 0 10 -262144
-1 -1;
#X obj 560 437 spigot;
#X msg 599 412 1;
#X msg 644 412 0;
#X obj 622 497 pipe 10;
#X obj 685 501 +;
#X obj 685 528 mtof;
#X obj 685 321 keyname;
#X floatatom 685 346 5 0 0 0 - - -, f 5;
#X obj 685 460 select 1;
#X obj 685 553 osc~;
#X obj 747 523 t b a;
#X obj 747 580 line~;
#X msg 747 554 1 \, 0 500;
#X obj 731 605 *~;
#X msg 718 554 1;
#X symbolatom 724 348 10 0 0 0 - - -, f 10;
#X obj 769 394 bng 15 250 50 0 empty empty empty 17 7 0 10 -262144
-1 -1;
#X obj 724 394 bng 15 250 50 0 empty empty empty 17 7 0 10 -262144
-1 -1;
#X obj 685 438 spigot;
#X msg 724 413 1;
#X msg 769 413 0;
#X obj 747 498 pipe 10;
#X obj 809 501 +;
#X obj 809 528 mtof;
#X obj 809 321 keyname;
#X floatatom 809 346 5 0 0 0 - - -, f 5;
#X obj 809 460 select 1;
#X obj 809 553 osc~;
#X obj 871 523 t b a;
#X obj 871 580 line~;
#X msg 871 554 1 \, 0 500;
#X obj 855 605 *~;
#X msg 842 554 1;
#X symbolatom 848 348 10 0 0 0 - - -, f 10;
#X obj 893 395 bng 15 250 50 0 empty empty empty 17 7 0 10 -262144
-1 -1;
#X obj 848 394 bng 15 250 50 0 empty empty empty 17 7 0 10 -262144
-1 -1;
#X obj 809 438 spigot;
#X msg 848 413 1;
#X msg 893 414 0;
#X obj 871 498 pipe 10;
#X obj 934 501 +;
#X obj 934 528 mtof;
#X obj 934 322 keyname;
#X floatatom 934 347 5 0 0 0 - - -, f 5;
#X obj 934 461 select 1;
#X obj 934 553 osc~;
#X obj 996 523 t b a;
#X obj 996 580 line~;
#X msg 996 554 1 \, 0 500;
#X obj 980 605 *~;
#X msg 967 554 1;
#X symbolatom 973 349 10 0 0 0 - - -, f 10;
#X obj 1018 395 bng 15 250 50 0 empty empty empty 17 7 0 10 -262144
-1 -1;
#X obj 973 395 bng 15 250 50 0 empty empty empty 17 7 0 10 -262144
-1 -1;
#X obj 934 439 spigot;
#X msg 973 414 1;
#X msg 1018 414 0;
#X obj 996 498 pipe 10;
#X obj 1056 501 +;
#X obj 1056 528 mtof;
#X obj 1056 322 keyname;
#X floatatom 1056 347 5 0 0 0 - - -, f 5;
#X obj 1056 461 select 1;
#X obj 1056 553 osc~;
#X obj 1118 523 t b a;
#X obj 1118 580 line~;
#X msg 1118 554 1 \, 0 500;
#X obj 1102 605 *~;
#X msg 1089 554 1;
#X symbolatom 1095 349 10 0 0 0 - - -, f 10;
#X obj 1140 395 bng 15 250 50 0 empty empty empty 17 7 0 10 -262144
-1 -1;
#X obj 1095 395 bng 15 250 50 0 empty empty empty 17 7 0 10 -262144
-1 -1;
#X obj 1056 439 spigot;
#X msg 1095 414 1;
#X msg 1140 414 0;
#X obj 1118 498 pipe 10;
#X obj 1180 503 +;
#X obj 1180 530 mtof;
#X obj 1180 324 keyname;
#X floatatom 1180 349 5 0 0 0 - - -, f 5;
#X obj 1180 463 select 1;
#X obj 1180 555 osc~;
#X obj 1242 525 t b a;
#X obj 1242 582 line~;
#X msg 1242 556 1 \, 0 500;
#X obj 1226 607 *~;
#X msg 1213 556 1;
#X symbolatom 1219 351 10 0 0 0 - - -, f 10;
#X obj 1264 397 bng 15 250 50 0 empty empty empty 17 7 0 10 -262144
-1 -1;
#X obj 1219 397 bng 15 250 50 0 empty empty empty 17 7 0 10 -262144
-1 -1;
#X obj 1180 441 spigot;
#X msg 1219 416 1;
#X msg 1264 416 0;
#X obj 1242 500 pipe 10;
#X obj 363 648 f;
#X obj 394 647 + 1;
#X floatatom 325 697 5 0 0 0 - - -, f 5;
#X obj 325 672 f;
#X obj 356 671 - 1;
#X floatatom 363 696 5 0 0 0 - - -, f 5;
#X msg 422 600 0;
#X obj 389 673 max 0;
#X floatatom 325 748 5 0 0 0 - - -, f 5;
#X obj 604 970 *~ 0.9;
#X obj 2055 327 keyname;
#X obj 604 944 *~;
#X text 657 933 spigot;
#X msg 619 917 1;
#X msg 647 916 0;
#X obj 173 881 *~;
#X text 226 870 spigot;
#X msg 188 854 1;
#X msg 216 853 0;
#X obj 619 868 r key;
#X obj 188 805 r key;
#X obj 427 649 min 10;
#X obj 325 723 / 10;
#X obj 454 599 loadbang;
#X obj 240 829 loadbang;
#X msg 443 626 9;
#X obj 188 828 sel 46;
#X obj 619 891 sel 44;
#X text 338 913 ton \, lang | . kurz;
#X obj 724 372 select z;
#X obj 848 372 select i;
#X obj 973 373 select u;
#X obj 438 416 s octaf;
#X obj 824 479 r octaf;
#X obj 575 478 r octaf;
#X obj 699 479 r octaf;
#X obj 946 480 r octaf;
#X obj 1070 481 r octaf;
#X obj 1095 373 select j;
#X obj 1195 481 r octaf;
#X obj 1219 375 select k;
#X obj 1346 376 select o;
#X obj 1322 484 r octaf;
#X obj 1471 377 select l;
#X obj 1447 483 r octaf;
#X obj 1571 484 r octaf;
#X obj 1720 377 select m;
#X obj 1696 484 r octaf;
#X obj 2094 379 select n;
#X obj 2070 486 r octaf;
#X obj 1818 484 r octaf;
#X obj 1842 377 select ü;
#X obj 1803 325 keyname;
#X floatatom 1803 352 5 0 0 0 - - -, f 5;
#X symbolatom 1842 354 10 0 0 0 - - -, f 10;
#X floatatom 178 45 5 0 0 0 - - -, f 5;
#X obj 151 71 sel 109 252 107 111 105 106 117 104 122 246 108 110;
#X obj 599 371 select h;
#X obj 1931 507 +;
#X obj 1931 534 mtof;
#X floatatom 1931 353 5 0 0 0 - - -, f 5;
#X obj 1931 467 select 1;
#X obj 1931 559 osc~;
#X obj 1993 529 t b a;
#X obj 1993 586 line~;
#X msg 1993 560 1 \, 0 500;
#X obj 1977 611 *~;
#X msg 1964 560 1;
#X symbolatom 1970 355 10 0 0 0 - - -, f 10;
#X obj 2015 401 bng 15 250 50 0 empty empty empty 17 7 0 10 -262144
-1 -1;
#X obj 1970 401 bng 15 250 50 0 empty empty empty 17 7 0 10 -262144
-1 -1;
#X obj 1931 445 spigot;
#X msg 1970 420 1;
#X msg 2015 420 0;
#X obj 1993 504 pipe 10;
#X obj 1931 327 keyname;
#X obj 1946 486 r octaf;
#X obj 1970 379 select ö;
#X obj 1595 377 select o;
#X symbolatom 321 591 10 0 0 0 - - -, f 10;
#X obj 322 566 keyname;
#X obj 321 624 sel Left;
#X obj 376 624 sel Right;
#X text 288 536 lautstärke rechts Left - | Right +;
#X floatatom 361 751 5 0 0 0 - - vol-right, f 5;
#X msg 388 937 set lang;
#X msg 407 961 set kurz;
#X obj 390 1013 s ton-right;
#X connect 0 0 6 0;
#X connect 1 0 6 0;
#X connect 2 0 6 0;
#X connect 3 0 6 0;
#X connect 4 0 6 0;
#X connect 5 0 6 0;
#X connect 6 0 14 0;
#X connect 6 0 15 0;
#X connect 6 0 19 0;
#X connect 6 0 307 0;
#X connect 7 0 330 0;
#X connect 7 0 331 0;
#X connect 8 0 6 0;
#X connect 9 0 6 0;
#X connect 10 0 6 0;
#X connect 11 0 6 0;
#X connect 12 0 6 0;
#X connect 13 0 6 0;
#X connect 16 0 37 0;
#X connect 16 0 39 0;
#X connect 16 0 41 0;
#X connect 16 0 43 0;
#X connect 16 0 45 0;
#X connect 17 0 54 0;
#X connect 18 0 54 0;
#X connect 19 0 20 0;
#X connect 20 0 22 0;
#X connect 20 1 23 0;
#X connect 21 0 55 1;
#X connect 22 0 21 0;
#X connect 23 0 55 0;
#X connect 24 0 54 0;
#X connect 36 0 46 0;
#X connect 36 0 53 0;
#X connect 37 0 36 0;
#X connect 38 0 17 0;
#X connect 38 0 46 0;
#X connect 39 0 38 0;
#X connect 40 0 18 0;
#X connect 40 0 46 0;
#X connect 41 0 40 0;
#X connect 42 0 24 0;
#X connect 42 0 46 0;
#X connect 43 0 42 0;
#X connect 44 0 46 0;
#X connect 45 0 44 0;
#X connect 46 0 47 0;
#X connect 46 1 48 0;
#X connect 46 2 49 0;
#X connect 46 3 50 0;
#X connect 46 4 51 0;
#X connect 47 0 6 1;
#X connect 48 0 6 1;
#X connect 49 0 6 1;
#X connect 50 0 6 1;
#X connect 51 0 6 1;
#X connect 53 0 54 0;
#X connect 55 0 290 0;
#X connect 56 0 57 0;
#X connect 57 0 67 0;
#X connect 57 0 61 0;
#X connect 58 0 59 0;
#X connect 58 1 68 0;
#X connect 59 0 71 0;
#X connect 60 0 56 0;
#X connect 60 1 74 0;
#X connect 61 0 65 0;
#X connect 62 0 64 0;
#X connect 63 0 65 1;
#X connect 64 0 63 0;
#X connect 65 0 76 0;
#X connect 67 0 63 0;
#X connect 68 0 316 0;
#X connect 69 0 73 0;
#X connect 70 0 72 0;
#X connect 71 0 60 0;
#X connect 72 0 71 1;
#X connect 73 0 71 1;
#X connect 74 0 62 0;
#X connect 75 0 80 0;
#X connect 75 0 80 1;
#X connect 76 0 286 0;
#X connect 77 0 76 1;
#X connect 77 0 75 1;
#X connect 78 0 77 0;
#X connect 79 0 78 0;
#X connect 81 0 82 0;
#X connect 82 0 91 0;
#X connect 82 0 86 0;
#X connect 83 0 84 0;
#X connect 83 1 92 0;
#X connect 84 0 95 0;
#X connect 85 0 81 0;
#X connect 85 1 98 0;
#X connect 86 0 90 0;
#X connect 87 0 89 0;
#X connect 88 0 90 1;
#X connect 89 0 88 0;
#X connect 90 0 76 0;
#X connect 91 0 88 0;
#X connect 92 0 318 0;
#X connect 93 0 97 0;
#X connect 94 0 96 0;
#X connect 95 0 85 0;
#X connect 96 0 95 1;
#X connect 97 0 95 1;
#X connect 98 0 87 0;
#X connect 99 0 100 0;
#X connect 100 0 109 0;
#X connect 100 0 104 0;
#X connect 101 0 102 0;
#X connect 101 1 110 0;
#X connect 102 0 113 0;
#X connect 103 0 99 0;
#X connect 103 1 116 0;
#X connect 104 0 108 0;
#X connect 105 0 107 0;
#X connect 106 0 108 1;
#X connect 107 0 106 0;
#X connect 108 0 76 0;
#X connect 109 0 106 0;
#X connect 110 0 353 0;
#X connect 111 0 115 0;
#X connect 112 0 114 0;
#X connect 113 0 103 0;
#X connect 114 0 113 1;
#X connect 115 0 113 1;
#X connect 116 0 105 0;
#X connect 117 0 118 0;
#X connect 118 0 127 0;
#X connect 118 0 122 0;
#X connect 119 0 120 0;
#X connect 119 1 128 0;
#X connect 120 0 131 0;
#X connect 121 0 117 0;
#X connect 121 1 134 0;
#X connect 122 0 126 0;
#X connect 123 0 125 0;
#X connect 124 0 126 1;
#X connect 125 0 124 0;
#X connect 126 0 76 0;
#X connect 127 0 124 0;
#X connect 128 0 321 0;
#X connect 129 0 133 0;
#X connect 130 0 132 0;
#X connect 131 0 121 0;
#X connect 132 0 131 1;
#X connect 133 0 131 1;
#X connect 134 0 123 0;
#X connect 135 0 136 0;
#X connect 136 0 143 0;
#X connect 136 0 138 0;
#X connect 137 0 135 0;
#X connect 137 1 149 0;
#X connect 138 0 142 0;
#X connect 139 0 141 0;
#X connect 140 0 142 1;
#X connect 141 0 140 0;
#X connect 142 0 76 0;
#X connect 143 0 140 0;
#X connect 144 0 148 0;
#X connect 145 0 147 0;
#X connect 146 0 137 0;
#X connect 147 0 146 1;
#X connect 148 0 146 1;
#X connect 149 0 139 0;
#X connect 150 0 151 0;
#X connect 151 0 159 0;
#X connect 151 0 154 0;
#X connect 152 0 163 0;
#X connect 153 0 150 0;
#X connect 153 1 166 0;
#X connect 154 0 158 0;
#X connect 155 0 157 0;
#X connect 156 0 158 1;
#X connect 157 0 156 0;
#X connect 158 0 76 0;
#X connect 159 0 156 0;
#X connect 160 0 323 0;
#X connect 161 0 165 0;
#X connect 162 0 164 0;
#X connect 163 0 153 0;
#X connect 164 0 163 1;
#X connect 165 0 163 1;
#X connect 166 0 155 0;
#X connect 167 0 168 0;
#X connect 168 0 177 0;
#X connect 168 0 172 0;
#X connect 169 0 170 0;
#X connect 169 1 178 0;
#X connect 170 0 181 0;
#X connect 171 0 167 0;
#X connect 171 1 184 0;
#X connect 172 0 176 0;
#X connect 173 0 175 0;
#X connect 174 0 176 1;
#X connect 175 0 174 0;
#X connect 176 0 76 0;
#X connect 177 0 174 0;
#X connect 178 0 332 0;
#X connect 179 0 183 0;
#X connect 180 0 182 0;
#X connect 181 0 171 0;
#X connect 182 0 181 1;
#X connect 183 0 181 1;
#X connect 184 0 173 0;
#X connect 185 0 186 0;
#X connect 186 0 195 0;
#X connect 186 0 190 0;
#X connect 187 0 188 0;
#X connect 187 1 196 0;
#X connect 188 0 199 0;
#X connect 189 0 185 0;
#X connect 189 1 202 0;
#X connect 190 0 194 0;
#X connect 191 0 193 0;
#X connect 192 0 194 1;
#X connect 193 0 192 0;
#X connect 194 0 76 0;
#X connect 195 0 192 0;
#X connect 196 0 304 0;
#X connect 197 0 201 0;
#X connect 198 0 200 0;
#X connect 199 0 189 0;
#X connect 200 0 199 1;
#X connect 201 0 199 1;
#X connect 202 0 191 0;
#X connect 203 0 204 0;
#X connect 204 0 213 0;
#X connect 204 0 208 0;
#X connect 205 0 206 0;
#X connect 205 1 214 0;
#X connect 206 0 217 0;
#X connect 207 0 203 0;
#X connect 207 1 220 0;
#X connect 208 0 212 0;
#X connect 209 0 211 0;
#X connect 210 0 212 1;
#X connect 211 0 210 0;
#X connect 212 0 76 0;
#X connect 213 0 210 0;
#X connect 214 0 305 0;
#X connect 215 0 219 0;
#X connect 216 0 218 0;
#X connect 217 0 207 0;
#X connect 218 0 217 1;
#X connect 219 0 217 1;
#X connect 220 0 209 0;
#X connect 221 0 222 0;
#X connect 222 0 231 0;
#X connect 222 0 226 0;
#X connect 223 0 224 0;
#X connect 223 1 232 0;
#X connect 224 0 235 0;
#X connect 225 0 221 0;
#X connect 225 1 238 0;
#X connect 226 0 230 0;
#X connect 227 0 229 0;
#X connect 228 0 230 1;
#X connect 229 0 228 0;
#X connect 230 0 76 0;
#X connect 231 0 228 0;
#X connect 232 0 306 0;
#X connect 233 0 237 0;
#X connect 234 0 236 0;
#X connect 235 0 225 0;
#X connect 236 0 235 1;
#X connect 237 0 235 1;
#X connect 238 0 227 0;
#X connect 239 0 240 0;
#X connect 240 0 249 0;
#X connect 240 0 244 0;
#X connect 241 0 242 0;
#X connect 241 1 250 0;
#X connect 242 0 253 0;
#X connect 243 0 239 0;
#X connect 243 1 256 0;
#X connect 244 0 248 0;
#X connect 245 0 247 0;
#X connect 246 0 248 1;
#X connect 247 0 246 0;
#X connect 248 0 76 0;
#X connect 249 0 246 0;
#X connect 250 0 313 0;
#X connect 251 0 255 0;
#X connect 252 0 254 0;
#X connect 253 0 243 0;
#X connect 254 0 253 1;
#X connect 255 0 253 1;
#X connect 256 0 245 0;
#X connect 257 0 258 0;
#X connect 258 0 267 0;
#X connect 258 0 262 0;
#X connect 259 0 260 0;
#X connect 259 1 268 0;
#X connect 260 0 271 0;
#X connect 261 0 257 0;
#X connect 261 1 274 0;
#X connect 262 0 266 0;
#X connect 263 0 265 0;
#X connect 264 0 266 1;
#X connect 265 0 264 0;
#X connect 266 0 76 0;
#X connect 267 0 264 0;
#X connect 268 0 315 0;
#X connect 269 0 273 0;
#X connect 270 0 272 0;
#X connect 271 0 261 0;
#X connect 272 0 271 1;
#X connect 273 0 271 1;
#X connect 274 0 263 0;
#X connect 275 0 276 0;
#X connect 275 0 278 1;
#X connect 275 0 280 0;
#X connect 276 0 296 0;
#X connect 277 0 297 0;
#X connect 278 0 277 0;
#X connect 278 0 279 0;
#X connect 278 0 275 1;
#X connect 279 0 282 0;
#X connect 280 0 297 0;
#X connect 281 0 275 0;
#X connect 282 0 278 1;
#X connect 283 0 79 0;
#X connect 284 0 66 0;
#X connect 284 0 66 1;
#X connect 285 0 152 0;
#X connect 285 1 160 0;
#X connect 286 0 284 0;
#X connect 288 0 286 1;
#X connect 288 0 360 0;
#X connect 289 0 286 1;
#X connect 290 0 75 0;
#X connect 292 0 290 1;
#X connect 292 0 361 0;
#X connect 293 0 290 1;
#X connect 294 0 302 0;
#X connect 295 0 301 0;
#X connect 296 0 275 1;
#X connect 297 0 283 0;
#X connect 297 0 359 0;
#X connect 298 0 300 0;
#X connect 299 0 292 0;
#X connect 300 0 275 0;
#X connect 300 0 278 0;
#X connect 301 0 289 0;
#X connect 301 0 292 0;
#X connect 302 0 288 0;
#X connect 302 0 293 0;
#X connect 304 0 198 0;
#X connect 304 1 197 0;
#X connect 305 0 216 0;
#X connect 305 1 215 0;
#X connect 306 0 234 0;
#X connect 306 1 233 0;
#X connect 308 0 203 1;
#X connect 309 0 167 1;
#X connect 310 0 185 1;
#X connect 311 0 221 1;
#X connect 312 0 239 1;
#X connect 313 0 252 0;
#X connect 313 1 251 0;
#X connect 314 0 257 1;
#X connect 315 0 270 0;
#X connect 315 1 269 0;
#X connect 316 0 70 0;
#X connect 316 1 69 0;
#X connect 317 0 56 1;
#X connect 318 0 94 0;
#X connect 318 1 93 0;
#X connect 319 0 81 1;
#X connect 320 0 99 1;
#X connect 321 0 130 0;
#X connect 321 1 129 0;
#X connect 322 0 117 1;
#X connect 323 0 162 0;
#X connect 323 1 161 0;
#X connect 324 0 150 1;
#X connect 325 0 135 1;
#X connect 326 0 145 0;
#X connect 326 1 144 0;
#X connect 327 0 328 0;
#X connect 327 1 329 0;
#X connect 328 0 146 0;
#X connect 329 0 326 0;
#X connect 331 0 0 0;
#X connect 331 0 30 0;
#X connect 331 1 1 0;
#X connect 331 1 25 0;
#X connect 331 2 2 0;
#X connect 331 2 31 0;
#X connect 331 3 13 0;
#X connect 331 3 26 0;
#X connect 331 4 3 0;
#X connect 331 4 32 0;
#X connect 331 5 4 0;
#X connect 331 5 33 0;
#X connect 331 6 5 0;
#X connect 331 6 27 0;
#X connect 331 7 12 0;
#X connect 331 7 34 0;
#X connect 331 8 11 0;
#X connect 331 8 28 0;
#X connect 331 9 8 0;
#X connect 331 9 35 0;
#X connect 331 10 9 0;
#X connect 331 10 29 0;
#X connect 331 11 52 0;
#X connect 331 11 10 0;
#X connect 332 0 180 0;
#X connect 332 1 179 0;
#X connect 333 0 334 0;
#X connect 334 0 342 0;
#X connect 334 0 337 0;
#X connect 335 0 346 0;
#X connect 336 0 333 0;
#X connect 336 1 349 0;
#X connect 337 0 341 0;
#X connect 338 0 340 0;
#X connect 339 0 341 1;
#X connect 340 0 339 0;
#X connect 341 0 76 0;
#X connect 342 0 339 0;
#X connect 343 0 352 0;
#X connect 344 0 348 0;
#X connect 345 0 347 0;
#X connect 346 0 336 0;
#X connect 347 0 346 1;
#X connect 348 0 346 1;
#X connect 349 0 338 0;
#X connect 350 0 335 0;
#X connect 350 1 343 0;
#X connect 351 0 333 1;
#X connect 352 0 345 0;
#X connect 352 1 344 0;
#X connect 353 0 112 0;
#X connect 353 1 111 0;
#X connect 354 0 356 0;
#X connect 354 0 357 0;
#X connect 355 1 354 0;
#X connect 356 0 278 0;
#X connect 357 0 275 0;
#X connect 360 0 362 0;
#X connect 361 0 362 0;
#X restore 436 21 pd right;
#X obj 365 -212 cnv 15 100 30 empty empty DADA 16 16 0 30 -1 -262144
0;
#X obj 14 -200 import maxlib;
#X obj 146 -136 bng 15 250 50 0 empty bang_bpm empty 17 7 0 10 -262144
-1 -1;
#X text 147 -158 + / -;
#X floatatom 165 -137 0 0 0 1 bpm bpm_nr dadaaaa;
#N canvas 4 52 493 586 metronom 0;
#X obj 174 345 pulse;
#X floatatom 178 318 5 0 0 0 - - -, f 5;
#X obj 94 283 tgl 15 0 empty empty bpm 17 7 0 10 -262144 -1 -1 0 1
;
#X floatatom 172 386 5 0 0 0 - - -, f 5;
#X obj 178 285 * 10;
#X obj 130 170 f;
#X obj 159 169 + 1;
#X obj 269 167 f;
#X obj 179 61 sel 43;
#X obj 172 88 bng 15 250 50 0 empty empty empty 17 7 0 10 -262144 -1
-1;
#X obj 179 15 key;
#X obj 247 57 sel 45;
#X obj 250 94 bng 15 250 50 0 empty empty empty 17 7 0 10 -262144 -1
-1;
#X floatatom 129 195 5 0 0 0 - - -, f 5;
#X floatatom 263 197 5 0 0 0 - - -, f 5;
#X msg 203 127 1;
#X obj 88 94 loadbang;
#X msg 169 408 32;
#X obj 356 171 max 1;
#X obj 167 434 s space;
#X msg 40 130 1;
#X floatatom 211 387 5 0 0 0 - - bang_bpm, f 5;
#X obj 189 169 min 12;
#X obj 176 248 + 1;
#X obj 299 168 - 1;
#X floatatom 216 317 5 0 0 0 - - bpm_nr, f 5;
#X connect 0 0 3 0;
#X connect 0 0 21 0;
#X connect 1 0 0 1;
#X connect 2 0 0 0;
#X connect 3 0 17 0;
#X connect 4 0 1 0;
#X connect 4 0 25 0;
#X connect 5 0 6 0;
#X connect 5 0 13 0;
#X connect 5 0 7 1;
#X connect 6 0 22 0;
#X connect 7 0 14 0;
#X connect 7 0 5 1;
#X connect 7 0 24 0;
#X connect 8 0 9 0;
#X connect 9 0 5 0;
#X connect 9 0 20 0;
#X connect 10 0 8 0;
#X connect 10 0 11 0;
#X connect 11 0 12 0;
#X connect 12 0 7 0;
#X connect 13 0 23 0;
#X connect 14 0 4 0;
#X connect 15 0 5 1;
#X connect 15 0 7 1;
#X connect 16 0 15 0;
#X connect 17 0 19 0;
#X connect 18 0 7 1;
#X connect 20 0 2 0;
#X connect 22 0 5 1;
#X connect 23 0 4 0;
#X connect 24 0 18 0;
#X restore 759 -7 pd metronom;
#X connect 1 0 2 0;
#X connect 4 0 54 0;
#X connect 5 0 53 0;
